HIERARCHY
ROOT Hips
{
	OFFSET	0.00	0.00	0.00
	CHANNELS 6 Xposition Yposition Zposition Zrotation Xrotation Yrotation
	JOINT LeftUpLeg
	{
		OFFSET	 0.126116	-0.065224	 0.014019
		CHANNELS 3 Zrotation Xrotation Yrotation
		JOINT LeftLeg
		{
			OFFSET	 0.000000	 0.569914	 0.000000
			CHANNELS 3 Zrotation Xrotation Yrotation
			JOINT LeftFoot
			{
				OFFSET	 0.000000	 0.544423	 0.000000
				CHANNELS 3 Zrotation Xrotation Yrotation
				JOINT LeftToeBase
				{
					OFFSET	 0.000000	 0.207117	 0.000000
					CHANNELS 3 Zrotation Xrotation Yrotation
					End Site
					{
						OFFSET	 0.000000	 0.207117	 0.000000
					}
				}
			}
		}
	}
	JOINT RightUpLeg
	{
		OFFSET	-0.124023	-0.065224	 0.008373
		CHANNELS 3 Zrotation Xrotation Yrotation
		JOINT RightLeg
		{
			OFFSET	 0.000000	 0.570047	 0.000000
			CHANNELS 3 Zrotation Xrotation Yrotation
			JOINT RightFoot
			{
				OFFSET	 0.000000	 0.544354	 0.000000
				CHANNELS 3 Zrotation Xrotation Yrotation
				JOINT RightToeBase
				{
					OFFSET	 0.000000	 0.207540	 0.000000
					CHANNELS 3 Zrotation Xrotation Yrotation
					End Site
					{
						OFFSET	 0.000000	 0.207540	 0.000000
					}
				}
			}
		}
	}
	JOINT Spine
	{
		OFFSET	 0.000184	 0.117403	 0.007763
		CHANNELS 3 Zrotation Xrotation Yrotation
		JOINT Spine1
		{
			OFFSET	 0.000000	 0.137269	 0.000000
			CHANNELS 3 Zrotation Xrotation Yrotation
			JOINT Spine2
			{
				OFFSET	 0.000000	 0.156879	 0.000000
				CHANNELS 3 Zrotation Xrotation Yrotation
				JOINT LeftShoulder
				{
					OFFSET	 0.080501	 0.160143	 0.002496
					CHANNELS 3 Zrotation Xrotation Yrotation
					JOINT LeftArm
					{
						OFFSET	 0.000000	 0.164363	 0.000000
						CHANNELS 3 Zrotation Xrotation Yrotation
						JOINT LeftForeArm
						{
							OFFSET	 0.000000	 0.364576	 0.000000
							CHANNELS 3 Zrotation Xrotation Yrotation
							JOINT LeftHand
							{
								OFFSET	 0.000000	 0.360812	 0.000000
								CHANNELS 3 Zrotation Xrotation Yrotation
								JOINT LeftHandIndex1
								{
									OFFSET	 0.000000	 0.086006	 0.000000
									CHANNELS 3 Zrotation Xrotation Yrotation
									JOINT LeftHandIndex2
									{
										OFFSET	 0.000000	 0.047237	 0.000000
										CHANNELS 3 Zrotation Xrotation Yrotation
										JOINT LeftHandIndex3
										{
											OFFSET	-0.004284	 0.038165	 0.000551
											CHANNELS 3 Zrotation Xrotation Yrotation
											End Site
											{
												OFFSET	-0.004284	 0.038165	 0.000551
											}
										}
									}
								}
							}
						}
					}
				}
				JOINT Neck
				{
					OFFSET	 0.000000	 0.176489	 0.000000
					CHANNELS 3 Zrotation Xrotation Yrotation
					JOINT Head
					{
						OFFSET	 0.000000	 0.077941	 0.001747
						CHANNELS 3 Zrotation Xrotation Yrotation
						End Site
						{
							OFFSET	 0.000000	 0.077941	 0.001747
						}
					}
				}
				JOINT RightShoulder
				{
					OFFSET	-0.080363	 0.159706	-0.000306
					CHANNELS 3 Zrotation Xrotation Yrotation
					JOINT RightArm
					{
						OFFSET	 0.000000	 0.164196	 0.000000
						CHANNELS 3 Zrotation Xrotation Yrotation
						JOINT RightForeArm
						{
							OFFSET	 0.000000	 0.365611	 0.000000
							CHANNELS 3 Zrotation Xrotation Yrotation
							JOINT RightHand
							{
								OFFSET	 0.000000	 0.360648	 0.000000
								CHANNELS 3 Zrotation Xrotation Yrotation
								JOINT RightHandIndex1
								{
									OFFSET	 0.000000	 0.069977	 0.000000
									CHANNELS 3 Zrotation Xrotation Yrotation
									JOINT RightHandIndex2
									{
										OFFSET	 0.000000	 0.052305	 0.000000
										CHANNELS 3 Zrotation Xrotation Yrotation
										JOINT RightHandIndex3
										{
											OFFSET	 0.009002	 0.042196	 0.000782
											CHANNELS 3 Zrotation Xrotation Yrotation
											End Site
											{
												OFFSET	 0.009002	 0.042196	 0.000782
											}
										}
									}
								}
							}
						}
					}
				}
			}
		}
	}
}
MOTION
Frames:    12
Frame Time: 0.03333334
 0.000816	 1.269734	-0.015947	 0.571450	 1.879222	-178.719100	-177.908900	 5.133339	-11.853480	 3.278065	-16.153120	 5.622151	 2.052862	 69.934020	-1.228465	 1.331492	 28.938720	-2.729976	 178.425400	 4.698637	 20.579650	-4.885385	-15.693160	-4.259870	 8.776397	 70.615140	-8.344251	-1.309659	 28.633480	 2.390115	-0.571671	 2.335361	-4.937035	-1.458696	 2.201149	-2.094313	-1.629966	-1.552056	 2.761858	-113.450000	 4.530161	 92.763140	 21.389900	 56.192310	 26.420820	 4.945187	-0.255579	-0.072843	-5.004363	-9.958268	-25.503780	-6.580301	 5.266122	 0.000000	 0.000000	 0.000000	 0.000000	 0.000000	 0.000000	 0.000000	 3.515279	-1.528412	 0.136595	 2.037631	 1.409999	 2.606747	 114.164800	-4.146799	-88.685860	-41.182430	 24.194540	 51.200170	-89.327350	-2.252900	-2.168116	-47.670040	-9.489727	-33.953170	-0.359563	 10.576240	 0.744533	 11.977740	 9.311190	-2.094780	-8.359058	 3.147177	 0.104483
-0.000522	 1.269598	-0.017015	 0.508587	 1.786267	-178.302400	-178.063500	 5.252027	-11.466390	 3.304807	-16.277770	 5.986357	 3.122110	 70.021980	-2.305557	 1.331492	 28.938720	-2.729976	 178.268700	 4.747045	 20.873140	-4.931673	-15.834040	-4.075740	 9.402954	 70.647620	-8.965728	-1.311146	 28.653120	 2.345705	-0.506364	 2.316045	-5.530351	-1.345597	 2.145505	-2.280660	-1.557278	-1.588133	 3.241530	-113.449200	 4.566161	 92.768390	 22.030390	 55.771080	 25.587380	 4.976096	-0.257137	-0.072706	-6.147580	-9.898189	-26.393510	-6.580301	 5.266122	 0.000000	 0.000000	 0.000000	 0.000000	 0.000000	 0.000000	 0.000000	 3.319908	-1.520436	 0.334904	 1.160584	 1.446782	 3.061236	 114.168500	-4.175825	-88.668190	-48.066920	 21.494710	 61.951610	-74.189660	-2.167899	-1.580814	-46.334340	-17.851630	-26.366990	-0.359505	 10.574660	 0.744519	 11.977720	 9.309632	-2.094447	-8.359042	 3.146384	 0.104542
-0.002259	 1.269306	-0.018547	 0.470646	 1.780122	-178.853200	-178.057100	 5.179652	-12.116530	 3.373054	-16.595260	 5.516548	 1.891021	 70.375210	-0.940716	 1.331492	 28.938720	-2.729976	 178.277000	 4.847689	 20.132870	-5.035830	-16.150380	-4.910329	 7.256459	 70.767560	-6.594338	-1.313323	 28.682410	 2.287394	-0.376259	 2.444704	-6.233954	-1.138050	 1.699087	-2.406386	-1.438476	-1.087355	 3.995768	-113.446900	 4.859879	 92.875160	 19.572590	 55.474260	 27.119920	 4.918710	-0.254223	-0.072922	-7.731682	-9.395023	-27.974950	-6.580301	 5.266122	 0.000000	 0.000000	 0.000000	 0.000000	 0.000000	 0.000000	 0.000000	 3.069549	-1.390013	 0.651152	-0.173588	 1.765026	 3.692632	 114.174500	-4.224413	-88.642080	-55.151200	 23.260360	 59.114480	-73.199210	-2.156998	-1.543439	-36.812660	-39.214190	-17.636860	-0.359423	 10.572460	 0.744497	 11.977690	 9.307473	-2.093982	-8.359022	 3.145288	 0.104622
-0.004447	 1.269142	-0.019270	 0.498463	 1.753136	 179.857200	-177.972900	 5.115856	-13.483250	 3.436026	-16.887210	 4.606330	-0.618676	 70.721700	 1.791763	 1.331492	 28.938720	-2.729976	 178.358900	 5.128178	 18.665290	-5.106057	-16.363100	-6.236778	 3.643006	 70.756430	-2.666183	-1.315667	 28.714490	 2.225648	-0.240310	 2.558018	-6.957694	-0.947468	 1.371755	-2.576839	-1.314015	-0.699996	 4.641302	-113.446000	 5.184524	 93.004210	 14.685730	 54.672440	 30.669060	 4.841225	-0.250224	-0.073300	-8.058004	-8.755346	-29.115180	-6.580301	 5.266122	 0.000000	 0.000000	 0.000000	 0.000000	 0.000000	 0.000000	 0.000000	 3.004282	-1.213997	 0.829428	-1.008846	 2.016310	 4.135092	 114.174600	-4.229307	-88.645190	-60.280310	 20.851770	 51.780430	-78.360260	-2.206819	-1.740124	-24.108080	-47.720610	-10.507760	-0.359335	 10.570110	 0.744474	 11.977660	 9.305157	-2.093483	-8.359000	 3.144112	 0.104706
-0.007556	 1.269202	-0.018639	 0.697842	 1.679023	 176.814600	-177.654800	 5.025593	-16.538090	 3.495533	-17.162370	 2.667724	-6.236620	 71.022290	 7.790529	 1.331492	 28.938720	-2.729976	 178.684000	 5.755193	 15.483890	-5.084707	-16.298470	-8.729885	-3.295619	 70.358890	 4.778356	-1.318249	 28.750510	 2.161309	-0.091806	 2.609904	-7.310743	-0.691023	 1.362297	-2.441203	-1.245027	-0.711352	 5.015655	-113.448100	 5.555668	 93.177250	 6.573919	 52.752350	 36.802610	 4.746199	-0.245302	-0.073672	-6.160816	-7.854381	-28.247940	-6.580301	 5.266122	 0.000000	 0.000000	 0.000000	 0.000000	 0.000000	 0.000000	 0.000000	 3.419910	-0.937017	 0.635414	-0.478883	 2.091439	 4.052511	 114.159500	-4.122181	-88.722540	-62.299040	 1.675303	 40.707050	-83.398120	-2.238148	-1.935585	-26.032680	-21.153800	-13.396600	-0.359239	 10.567580	 0.744447	 11.977620	 9.302670	-2.092944	-8.358978	 3.142851	 0.104796
-0.008700	 1.269108	-0.019061	 0.998617	 1.474302	 175.076500	-177.247200	 5.183510	-18.073250	 3.585865	-17.578290	 1.630951	-9.375681	 71.142500	 11.123820	 1.331492	 28.938720	-2.729976	 178.984500	 5.964286	 13.837010	-4.990902	-16.014080	-9.682488	-6.018913	 69.999360	 7.598685	-1.320647	 28.784550	 2.103522	-0.052823	 2.600765	-7.318239	-0.772669	 1.479106	-2.105083	-1.237711	-0.847748	 4.929820	-113.449900	 5.693672	 93.251330	 5.025187	 52.206850	 37.575880	 4.712802	-0.243605	-0.073874	-3.731631	-8.153166	-26.750850	-6.580301	 5.266122	 0.000000	 0.000000	 0.000000	 0.000000	 0.000000	 0.000000	 0.000000	 3.948148	-0.654475	 0.232223	 1.164817	 2.233557	 3.320466	 114.143300	-3.997833	-88.800150	-59.731620	-3.776988	 28.913060	-100.554700	-2.214996	-2.607165	-31.749690	-7.955985	-18.241570	-0.359151	 10.565270	 0.744421	 11.977590	 9.300400	-2.092452	-8.358959	 3.141703	 0.104875
-0.008159	 1.268881	-0.020485	 1.382149	 1.171441	 174.405300	-176.774700	 5.498032	-18.366270	 3.697198	-18.088300	 1.313556	-10.471210	 71.249970	 12.273380	 1.331492	 28.938720	-2.729976	 179.254700	 5.827517	 13.453980	-4.853718	-15.596600	-9.353726	-5.484981	 69.904530	 6.807918	-1.322929	 28.817470	 2.050312	-0.113555	 2.566603	-6.878665	-1.133653	 1.544757	-1.466123	-1.289133	-0.978667	 4.443253	-113.450900	 5.638917	 93.243760	 9.217835	 52.994540	 33.774460	 4.736932	-0.244847	-0.073737	-1.013059	-8.999238	-24.403240	-6.580301	 5.266122	 0.000000	 0.000000	 0.000000	 0.000000	 0.000000	 0.000000	 0.000000	 4.580458	-0.366977	-0.353339	 3.763487	 2.398863	 2.029340	 114.126100	-3.857161	-88.879170	-56.577430	-3.035566	 7.167834	-122.616700	-1.898024	-3.408733	-33.292170	-1.645883	-34.104620	-0.359068	 10.563110	 0.744396	 11.977560	 9.298277	-2.091989	-8.358942	 3.140632	 0.104948
-0.009299	 1.268592	-0.022693	 1.489513	 1.150356	 176.282600	-177.056900	 5.622540	-16.643020	 3.760353	-18.376300	 3.212237	-5.027675	 71.709820	 6.493824	 1.331492	 28.938720	-2.729976	 179.140600	 5.419367	 15.367520	-4.909866	-15.767690	-7.875501	-1.437416	 70.301030	 2.496588	-1.324032	 28.833550	 2.029148	-0.231627	 2.426749	-7.096454	-1.371322	 1.742273	-1.646892	-1.333321	-1.368462	 4.180534	-113.448200	 5.465734	 93.146130	 13.540910	 55.844780	 30.729720	 4.680352	-0.241955	-0.073970	 0.660876	-13.064780	-23.877690	-6.580301	 5.266122	 0.000000	 0.000000	 0.000000	 0.000000	 0.000000	 0.000000	 0.000000	 4.698089	-0.384158	-0.539716	 4.395261	 2.383935	 1.890435	 114.136800	-3.913500	-88.814800	-48.863530	-0.692345	 35.285130	-111.279600	-2.099576	-3.011992	-30.950210	-5.948398	-22.624390	-0.359031	 10.562220	 0.744381	 11.977540	 9.297417	-2.091797	-8.358936	 3.140202	 0.104973
-0.009422	 1.268513	-0.023599	 1.441346	 1.190212	 178.764000	-177.452100	 5.820355	-14.446350	 3.789383	-18.508310	 5.411324	 1.511349	 71.838850	-0.467903	 1.331492	 28.938720	-2.729976	 178.925900	 5.108997	 17.805420	-4.978792	-15.977290	-6.090839	 3.524747	 70.534550	-2.854712	-1.324035	 28.833590	 2.036641	-0.339883	 2.273846	-7.433759	-1.337380	 1.885505	-2.016091	-1.400337	-1.775121	 4.132413	-113.443600	 5.288258	 93.017090	 19.318780	 57.734070	 26.751460	 4.696927	-0.242746	-0.073882	-0.221731	-16.334910	-24.507580	-6.580301	 5.266122	 0.000000	 0.000000	 0.000000	 0.000000	 0.000000	 0.000000	 0.000000	 4.613876	-0.471339	-0.483909	 4.025735	 2.323871	 2.279207	 114.164200	-4.086649	-88.667980	-54.554890	-1.965316	 58.060570	-76.711300	-2.192810	-1.676731	-27.276210	-21.311520	-16.100640	-0.359038	 10.562520	 0.744377	 11.977540	 9.297718	-2.091854	-8.358943	 3.140361	 0.104955
-0.005887	 1.268990	-0.020658	 1.151115	 1.133334	-179.394200	-177.628200	 6.384602	-12.801250	 3.744264	-18.303020	 6.524264	 4.694011	 71.433190	-3.917278	 1.331492	 28.938720	-2.729976	 178.542500	 5.329942	 19.594650	-4.972440	-15.957990	-4.492445	 7.595987	 70.397760	-7.486509	-1.321722	 28.800090	 2.101512	-0.377985	 2.170993	-8.047320	-1.058192	 1.972540	-2.605733	-1.312341	-2.047884	 4.578723	-113.436200	 5.217951	 92.884920	 26.273500	 54.858260	 22.049480	 4.990782	-0.257908	-0.072648	-8.123856	-14.069900	-28.166760	-6.580301	 5.266122	 0.000000	 0.000000	 0.000000	 0.000000	 0.000000	 0.000000	 0.000000	 4.374113	-0.504877	-0.051782	 2.374839	 2.247412	 3.232573	 114.215000	-4.421429	-88.413220	-53.635600	 23.449790	 54.925610	-70.472810	-2.123608	-1.441567	-25.478030	-66.500100	 0.701195	-0.359134	 10.565210	 0.744396	 11.977560	 9.300372	-2.092417	-8.358972	 3.141714	 0.104850
-0.003175	 1.269397	-0.015756	 0.902537	 1.128251	 179.123900	-177.494100	 6.015511	-14.099700	 3.589944	-17.597060	 4.711621	-0.680739	 71.065670	 1.682573	 1.331492	 28.938720	-2.729976	 178.688600	 5.869981	 18.038230	-5.051561	-16.198090	-5.993646	 3.441535	 70.491560	-3.073426	-1.315427	 28.711600	 2.254560	-0.397785	 2.250495	-8.205091	-0.855281	 2.078528	-2.706121	-1.179478	-1.952460	 5.223570	-113.435200	 5.318674	 92.913410	 15.306000	 53.990150	 30.731160	 4.873248	-0.251844	-0.073145	-7.675929	-10.601520	-29.651270	-6.580301	 5.266122	 0.000000	 0.000000	 0.000000	 0.000000	 0.000000	 0.000000	 0.000000	 4.683198	-0.507483	 0.148710	 1.818364	 2.363593	 3.876521	 114.254900	-4.679152	-88.216710	-55.952870	 12.909710	 53.695460	-75.267240	-2.179079	-1.621697	-22.518210	-37.765490	-0.113720	-0.359372	 10.571660	 0.744453	 11.977640	 9.306732	-2.093782	-8.359031	 3.144941	 0.104612
 0.002123	 1.269563	-0.009427	 0.652601	 1.176741	 177.846200	-177.310100	 5.659274	-15.188080	 3.437811	-16.895550	 2.947122	-5.775467	 70.453780	 6.909146	 1.331492	 28.938720	-2.729976	 178.948000	 6.414674	 16.670510	-5.144912	-16.480540	-7.507696	-0.874458	 70.510130	 1.418528	-1.307264	 28.602090	 2.446713	-0.426582	 2.322982	-7.946926	-0.850353	 2.556891	-2.599584	-1.026342	-2.039053	 5.626979	-113.435800	 5.437987	 92.971170	 5.130755	 53.868660	 38.077140	 4.676410	-0.241760	-0.073964	-5.706467	-8.939979	-29.990140	-6.580301	 5.266122	 0.000000	 0.000000	 0.000000	 0.000000	 0.000000	 0.000000	 0.000000	 5.056799	-0.470237	 0.187834	 2.068339	 2.316162	 4.108622	 114.283800	-4.859434	-88.072570	-57.698300	 5.382218	 45.365710	-91.467060	-2.252331	-2.252167	-22.108850	-8.381317	-2.752795	-0.393821	 11.558370	 0.751082	 11.992080	 10.272330	-2.301786	-8.369320	 3.677346	 0.070517
